<?xml version="1.0" encoding="UTF-8" standalone="no"?>
<!-- Generator: Adobe Illustrator 15.1.0, SVG Export Plug-In . SVG Version: 6.00 Build 0)  -->

<svg
   xmlns:dc="http://purl.org/dc/elements/1.1/"
   xmlns:cc="http://creativecommons.org/ns#"
   xmlns:rdf="http://www.w3.org/1999/02/22-rdf-syntax-ns#"
   xmlns:svg="http://www.w3.org/2000/svg"
   xmlns="http://www.w3.org/2000/svg"
   xmlns:sodipodi="http://sodipodi.sourceforge.net/DTD/sodipodi-0.dtd"
   xmlns:inkscape="http://www.inkscape.org/namespaces/inkscape"
   version="1.1"
   id="Layer_1"
   x="0px"
   y="0px"
   width="998.95px"
   height="361.482px"
   viewBox="0 0 998.95 361.482"
   enable-background="new 0 0 998.95 361.482"
   xml:space="preserve"
   sodipodi:docname="clipping.svg"
   inkscape:version="0.92.2 2405546, 2018-03-11"><metadata
     id="metadata13"><rdf:RDF><cc:Work
         rdf:about=""><dc:format>image/svg+xml</dc:format><dc:type
           rdf:resource="http://purl.org/dc/dcmitype/StillImage" /><dc:title /></cc:Work></rdf:RDF></metadata><defs
     id="defs11" /><sodipodi:namedview
     pagecolor="#000000"
     bordercolor="#666666"
     borderopacity="1"
     objecttolerance="10"
     gridtolerance="10"
     guidetolerance="10"
     inkscape:pageopacity="0"
     inkscape:pageshadow="2"
     inkscape:window-width="1680"
     inkscape:window-height="1005"
     id="namedview9"
     showgrid="false"
     inkscape:zoom="0.87087522"
     inkscape:cx="328.4927"
     inkscape:cy="310.55608"
     inkscape:window-x="0"
     inkscape:window-y="23"
     inkscape:window-maximized="0"
     inkscape:current-layer="layer3"
     inkscape:snap-global="false" /><g
     inkscape:groupmode="layer"
     id="layer1"
     inkscape:label="ponies"><path
       id="Rainbow_Dash_1_"
       fill="#010101"
       d="M246.92,279.631c-17.738-0.138-29.029-11.652-29.029-11.652  c2.159,0.974,8.568,1.146,8.568,1.146s-8.482-4.352-10.406-8.609c-11.835-26.184-20.385-32.119-20.385-32.119  c3.355-0.362,9.165,1.225,9.165,1.225c-22.725-23.706-50.593-4.873-50.593-4.873s10.624-11.59,15.423-19.55  c4.797-7.956,2.048-10.127-5.267-7.247c-7.316,2.88-19.441,17.822-19.441,17.822s5.407-11.985,6.761-15.26  c1.354-3.271,2.732-14.003-9.231-3.236s-10.577,36.308-10.577,36.308c-3.403-11.892-18.249,0.861-18.249,0.861  s5.874-17.423,6.117-22.937c0.243-5.515-4.662-9.78-8.704-4.803c-4.042,4.982-8.91,21.433-8.91,21.433s0.928-13.636-0.64-18.93  c-3.314-11.193-8.42-0.104-8.42-0.104s-5.11,11.462-0.7,25.302c3.041,9.549,7.695,20.337,7.695,20.337l-7.07-3.379  c-0.39-16.175-13.712-21.66-15.127-22.262c-1.415-0.6-2.234-0.381-2.61,0.363c-0.375,0.744-1.357,4.766-1.357,4.766  c-35.345-16.895-52.762,18.15-52.762,18.15c6.062-6.908,14.796-10.682,14.796-10.682c-15.33,14.483-13.229,31.855-13.229,31.855  c3.396-12.284,9.147-15.322,9.147-15.322s-2.85,4.949-3.039,16.39c-0.175,10.58-6.17,16.824-6.17,16.824  c5.652-1.546,17.629-14.112,17.629-14.112c0.827,3.356,4.303,8.959,4.303,8.959s-1.294,0.815-2.833,2.591  c-1.582,1.822,0.162,4.043,1.268,5.09c1.704,1.615,4.63,2.729,4.63,2.729c2.994-0.717,4.789-2.584,4.789-2.584  c0.774,2.266-0.814,3.986-0.814,3.986c11.392,3.467,20.948-0.896,26.178-4.604c5.23-3.711,13.279-3.235,13.279-3.235  c-2.619,2.973-5.456,4.38-15.465,10.456c-10.009,6.076-17.272,15.442-18.396,16.93c-1.121,1.487-2.104,5.137,2.066,6.044  c4.169,0.908,9.985,0.632,14.308,0.721c4.323,0.091,7.604-0.42,8.209-2.578c0.604-2.161,1.134-4.843,13.992-15.307  c12.857-10.464,13.846-16.724,13.846-16.724c8.563,3.012,15.806-1.138,15.806-1.138s-3.313,9.455-4.821,14.667  c-1.51,5.214,5.871,5.09,5.871,5.09s-0.833,3.572-1.445,7.971c-0.61,4.396,3.34,4.483,11.016,4.585  c7.676,0.101,12.606-2.798,12.393-5.771c-0.661-9.203-0.209-25.566-0.053-27.504c0.157-1.935,0.464-4.692-1.47-5.97  c-1.933-1.274-1.93-2.388-2.144-5.074c-0.216-2.683,4.724-8.109,4.724-8.109c17.551,11.39,22.94,5,22.94,5s-0.378,1.489,5.418,6.803  c5.793,5.312,6.14,12.767,5.085,16.268c-1.057,3.499-0.913,5.289,1.095,6.34c2.009,1.051,17.21,2.072,21.106-3.206  c3.894-5.28-1.673-12.006-1.673-12.006c3.045,3.141,8.704,5.173,8.704,5.173c-3.793-2.398-4.598-7.022-4.598-7.022  c15.69,10.638,29.124,5.841,29.124,5.841c-6.78-1.293-11.972-8.39-11.972-8.39C238.26,284.296,246.92,279.631,246.92,279.631z   M177.468,258.948c-7.358-5.839-10.892-2.555-10.892-2.555c-0.445-0.616-7.672-12.099-7.672-12.099  C172.938,243.894,177.468,258.948,177.468,258.948z"
       style="fill:#9dd9f8;fill-opacity:1" /><path
       id="Applejack_1_"
       d="m 359.881,193.788 c 0,0 -14.363,-18.272 -15.36,-19.731 -1.259,-1.838 -3.785,-4.822 -7.033,-2.932 -3.25,1.888 -8.065,4.556 -12.539,4.54 -4.472,-0.015 -22.361,-0.08 -30.093,5.149 l -2.536,21.906 c 0,0 -7.164,2.436 -11.354,18.185 0,0 -4.121,-4.935 -3.999,-8.066 0.123,-3.129 2.038,-7.146 -8.867,-21.831 0,0 -1.192,-10.85 11.802,-17.848 12.993,-6.999 33.401,-2.604 38.744,-6.369 0,0 3.545,-1.197 4.674,-4.549 0,0 12.028,13.571 20.128,-1.048 0,0 2.996,5.504 0.422,7.606 0,0 14.222,-6.773 6.45,-21.893 0,0 4.468,1.133 5.462,4.266 0,0 6.862,-12.051 -16.943,-14.481 0,0 0.342,-2.124 2.805,-2.785 0,0 -12.69,-7.025 -19.08,9.356 0,0 -40.238,-23.762 -73.629,-2.747 0,0 -3.859,-11.166 -5.539,-14.555 -2.11,-4.256 -22.656,-11.65 -25.523,8.743 0,0 -1.347,1.786 12.449,21.175 6.58,9.248 5.34,7.398 5.996,12.097 0.655,4.7 2.314,9.734 3.65,11.306 0,0 -3.142,3.233 -2.708,6.923 0,0 -8.485,-3.609 -9.602,-3.613 0,0 -1.117,-0.563 -1,-2.017 0.118,-1.452 0.904,-2.68 -1.324,-4.922 l -27.631,-27.601 c 0,0 -9.71,-4.955 -17.01,4.524 -7.301,9.478 -2.405,15.979 -0.731,17.103 1.673,1.125 32.801,20.019 32.801,20.019 0,0 -4.963,12.504 17.898,29.354 0,0 2.679,1.463 2.555,4.593 -0.123,3.132 2.289,17.003 30.405,33.761 0,0 -7.655,14.956 -0.745,53.104 0,0 0.421,7.605 13.505,6.979 13.083,-0.626 21.017,0.186 16.35,-8.105 -4.666,-8.289 -11.657,-23.519 -10.28,-33.688 0,0 4.689,2.142 8.02,8.86 0,0 -0.117,1.454 -2.357,2.46 0,0 0.865,8.604 9.798,11.99 0,0 6.456,13.077 19.138,26.228 5.537,5.741 6.242,5.276 10.043,5.626 3.8,0.35 20.911,-0.598 20.911,-0.598 0,0 8.162,-0.42 0.916,-6.592 -7.246,-6.177 -20.504,-19.414 -27.627,-28.719 0,0 2.92,-3.681 2.487,-7.931 0,0 2.79,1.687 3.554,7.17 0,0 5.779,-22.117 -15.464,-22.192 0,0 0.46,-3.576 1.693,-4.466 0,0 3.691,-0.437 6.375,-0.649 0,0 12.917,14.804 31.614,7.49 0,0 -2.793,-0.571 -3.792,-2.588 0,0 4.596,-3.671 6.835,-4.223 2.238,-0.55 3.801,0.349 5.028,1.136 0,0 8.846,-3.392 8.973,-8.354 0.066,-2.594 -3.006,-3.812 -3.006,-3.812 l -2.121,-0.901 3.605,-7.926 c 0,0 14.926,16.042 32.865,1.57 0,0 -15.007,6.877 -21.271,-24.34 0,0 4.078,1.608 4.771,2.939 0,0 6.565,-15.532 -24.468,-29.169 0,0 31.982,-1.9 28.705,-24.272 -10e-4,-0.003 -9.454,18.078 -27.795,19.355 z m -68.223,38.556 c -0.326,-2.906 4.148,-3.452 4.148,-3.452 -2.141,4.692 -4.148,3.452 -4.148,3.452 z"
       style="fill:#fcba5f;fill-opacity:1"
       inkscape:connector-curvature="0" /><path
       id="Pinkie_Pie_1_"
       fill="#010101"
       d="M474.972,52.755c-8.226-13.781-21.447-6.112-21.447-6.112  c2.705-5.805,4.773-21.897-9.075-26.193c-13.849-4.297-17.353,6.647-17.353,6.647c-4.785-6.837-12.013-1.719-12.013-1.719  s-7.517-8.974-20.956-2.309c-14.784,7.332-9.384,30.042-9.384,30.042c-4.244-1.245-3.765-10.411-3.765-10.411  c-5.892,6.407-6.253,13.562-2.63,16.37c3.625,2.808,8.099,1.985,9.787-1.083c1.688-3.069,5.58-12.95,11.909-16.506  s11.906,0.657,11.906,0.657c-6.789,3.316-11.251,7.421-14.19,11.369c-0.682-0.503-1.596-1.34-2.052-2.481  c0,0,0.208,2.052,1.462,3.301c-0.493,0.709-0.94,1.411-1.344,2.102c-0.81-0.538-1.817-1.327-2.174-2.152  c0,0,0.447,1.766,1.624,3.137c-0.298,0.56-0.567,1.107-0.813,1.642c-0.728-0.286-1.866-0.831-2.579-1.67  c0,0,0.827,1.817,2.049,2.892c-1.763,4.347-1.825,7.506-1.825,7.506s-3.058,0.772-3.123,3.176c-0.122,4.548,1.295,7.961,1.295,7.961  s2.77-1.056,3.9,0.833c2.028,3.39,1.123,6.399,0.843,6.675c-1.362,1.338-2.61,0.736-2.61,0.736  c8.743,15.013,23.023,12.863,23.023,12.863c2.722,9.997-1.167,13.783-1.167,13.783s1.835-13.185-10.81-9.987  c-22.078,5.584-32.945,21.351-30.057,26.616c2.889,5.265,13.287,5.413,18.999,2.304c5.714-3.111,8.766-12.717,8.766-12.717  c-1.499,12.741,9.458,12.891,9.458,12.891c-15.236,8.669-20.315,22.628-21.679,28.884c-1.364,6.256-1.066,16.735,9.799,11.328  c10.866-5.412,11.443-11.253,11.127-16.959c-0.316-5.702,2.43-7.481,2.43-7.481c-1.204,8.267,5.566,23.052,5.566,23.052  c-3.174,12.737-1.146,15.315-2.771,25.37c-2.592,16.041-9.223,22.861-11.271,25.675c-3.043,4.181-5.169,7.584-7.983,13.167  c-2.815,5.581,4.678,4.937,10.043,5.064c5.366,0.131,9.597,1.665,13.205-3.197c11.273-15.188,10.169-30.71,11.301-34.616  c1.131-3.911-1.317-7.163-1.317-7.163l10.996-11.027c24.823,30.941,19.935,54.293,18.803,58.201  c-1.132,3.909-1.807,5.362,1.209,5.818c3.018,0.457,7.934,1.369,13.299,1.501s9.606-1.918,9.079-6.453  c-3.175-27.329-16.941-47.129-18.168-47.918c-1.228-0.785-3.907-1.689-3.907-1.689c0.785-0.666,1.034-8.046,1.034-8.046  c3.899,3.929,15.187,5.306,15.187,5.306s-5.619,8.368,7.083,21.046c12.701,12.68,30.283,4.244,30.283,4.244  s-7.192,10.82,9.582,9.761c16.772-1.061,11.257-21.766,11.257-21.766c0.634,10.289-10.893,12.933-10.893,12.933  c9.873-9.358,0.277-15.203,0.277-15.203c10.358-20.202-12.336-20.948-12.336-20.948s8.54-12.046-0.354-26.613  c-13.73-22.487-28.729-1.667-28.729-1.667s1.836-13.188-12.543-17.844c-14.379-4.655-24.092,7.54-24.092,7.54  c-1.449-1.234-3.439-7.501-3.439-7.501s7.251,4.497,13.878-4.089c6.626-8.586-1.179-14.763-1.179-14.763s10.265,6.074,16.352-8.104  c6.087-14.177-5.514-21.821-5.514-21.821S483.197,66.536,474.972,52.755z"
       style="fill:#f9b8d2;fill-opacity:1" /><path
       id="Twilight_1_"
       fill="#010101"
       d="M628.692,120.262c0,0-13.256-46.446-45.741-28.67c0,0-1.646-8.948-6.161,3.892  c0,0-6.876,5.269-10.986,8.794c-4.114,3.526-8.56,6.193-10.682,5.851c0,0-7.078-13.159-10.688-3.549  c-3.606,9.61-4.834,30.404,9.082,36.716c0,0,1.796,19.756,16.583,26.794l-0.167,15.151l-49.54-54.921c0,0-3.408-5.755-7.013,1.988  c-3.604,7.74-3.988,16.641-3.421,18.997c0.569,2.353,2.74,5.525,5.935,8.592c3.193,3.065,52.721,45.947,52.721,45.947  s2.44,16.558-1.191,31.749c0,0-47.096-45.482-117.466,85.01l8.62,7.632c0,0,5.88-18.912,9.027-23.819l-6.501,25.912  c0,0,34.669,18.906,41.075,19.823c0,0-0.764-38.134,13.786-63.009c14.095-24.101,29.77-30.01,38.867-31.17  c0,0-4.032,13.067-1.605,21.905c0,0-7.155,0.2-11.878,7.563c-4.72,7.363-20.566,24.838-23.215,52.804  c-0.52,5.474,2.324,6.94,7.13,7.066c4.809,0.13,13.193,0.159,16.661-0.161c3.467-0.326,4.709-4.569,3.495-8.71  c-1.216-4.143-2.758-10.633-1.402-14.651c1.356-4.021,13.619-26.005,13.619-26.005s8.953-2.763,19.081-21.734  c0,0,6.417,1.128,16.333-1.956l2.896,3.03c0,0,0.91,0.989-0.344,2.122c-1.76,1.591-3.024,1.776-3.148,5.468  c0,0-1.025,20.065,7.794,41.06c3.105,7.39,13.623,4.968,16.756,4.531c3.132-0.437,17-1.729,9.541-11.146  c-7.456-9.418-18.695-24.774-14.168-40.413c4.525-15.635,2.675-30.065-6.556-44.185c0,0,1.155-10.059-2.145-26.282  c0,0,38.465-38.825,51.843-53.595c2.749-3.039,6.03-9.594,4.123-17.95c-2.429-10.632-6.347-18.341-11.851-10.589  c-7.453,10.494-48.529,65.907-48.529,65.907s-1.743-13.085-2.955-18.905c0,0,28.427-7.95,18.264-43.093  c0,0,3.704-3.788,3.839-10.832C618.408,119.22,625.622,118.716,628.692,120.262z"
       style="fill:#d4a4e8;fill-opacity:1" /><path
       id="Fluttershy_1_"
       fill="#010101"
       d="M918.961,80.28c0,0-20.25-6.706-30.317,16.143c0,0-0.73,1.248,1.856,1.872  c2.536,0.61,1.776,1.323,1.776,1.323s-11.31,17.724-12.548,30.987c0,0-17.53-17.353-18.106-1.625c0,0-4.4,0.878-6.416,2.064  c0,0-22.865-29.201-47.857-3.482c-26.238,27.001-15.138,49.398-13.88,51.937c0,0,4.143,8.736,13.296,13.314  c9.151,4.58,0.571,7.158-2.785,7.893c-3.356,0.733-11.249-1.307-15.119-2.736c-3.873-1.432-25.664-8.933-32.151,6.817  c-3.346,8.128,5.688,12.279,5.688,12.279s10.08,4.854,9.014-3.441c0,0-0.738,5.077-5.689,2.961  c-4.023-1.719-8.568-7.854-0.217-12.065c9.53-4.802,16.478-1.281,20.868,0.818c4.389,2.102,16.354,12.358,33.664,7.498  c0,0-2.71,7.667-3.035,15.269c-0.323,7.601,5.642,6.504,8.027,6.438c2.386-0.067,17.407,0.966,15.659-6.313  c-1.749-7.28-6.532-24.438,15.276-58.126l7.995,6.759c-7.297,9.667-2.082,15.75,2.315,18.268c0.431,5.339,2.06,11.468,6.376,19.899  c0,0,0.585,3.804,6.101,3.302c5.518-0.501,13.948-1.889,17.153-2.549c3.208-0.659,4.484-4.084,1.067-7.227  c-3.415-3.143-9.728-10.246-11.209-12.86c0,0,8.355-1.908,9.712-6.301c0,0,2.4,16.853,14.024,17.788c0,0,16.82-14.101-0.216-44.349  c0,0-1.265-1.048-3.203-1.576c-1.936-0.527,0.085-2.832,1.501-2.231c1.413,0.602,5.28,3.147,10.438-1.082  c5.157-4.231,3.276,0.608,2.901,1.351c-0.375,0.745-3.368,4.088,0.262,10.289c3.63,6.199,9.137,9.05,11.671,9.656  c2.529,0.605,4.551-1.7,5.08-4.009c0.529-2.309,3.347-16.928-9.06-30.293c-6.387-6.878-11.694-3.318-13.562-1.833  c0,0,3.146-4.166,6.059-6.168c0,0,6.984,6.212,20.413,3.276c0,0-3.605,17.041,4.65,34.153c6.808,14.113,18.366,12.289,21.802,10.587  c5.225-2.59,13.673-8.819,8.86-18.901c-4.595-9.633-12.516-1.61-12.379,2.043c0,0,5.988-7.433,8.275-0.566  c2.288,6.863-3.85,8.9-8.835,6.348c-4.982-2.552-6.951-11.361-2.863-18.595c4.089-7.235,11.941-14.659,17.121-25.6  c5.181-10.937,10.813-22.845,3.565-38.597C974.734,75.333,944.578,65.535,918.961,80.28z M843.23,145.537  c-7.129,13.39-4.207,30.915-4.207,30.915s-5,1.92-5.904,3.855c-0.9,1.935-2.854,6.623-2.854,6.623  c-18.124-39.193,10.975-47.664,10.975-47.664C841.457,141.206,843.23,145.537,843.23,145.537z M866.464,186.741  c-1.18,0.381-2.551,0.382-3.381-1.147c-1.143-2.108,1.259-5.407,2.758-7.145l2.608,2.204  C868.45,180.652,867.129,182.693,866.464,186.741z"
       style="fill:#fdf6af;fill-opacity:1" /><path
       id="Rarity_1_"
       fill="#010101"
       d="M832.625,70.942c-2.845-1.521-7.879-1.538-11.983,5.938  c-4.108,7.477-25.13,40.501-35.563,50.974c0,0,0.76-9.725,0.71-11.236c0,0,14.816-8.278,10.323-28.665  c1.313-0.397,2.848-1.273,3.737-3.185c0,0-1.803,1.249-4.051,1.827c-0.158-0.61-0.344-1.237-0.534-1.867  c1.206-0.323,2.727-1.066,3.674-2.784c-0.963,0.712-2.709,1.197-4.104,1.438c-0.215-0.634-0.437-1.276-0.688-1.935  c1.066-0.008,2.451-0.389,3.458-2.007c0,0-2.236,0.79-3.954,0.786c-0.504-1.229-1.048-2.479-1.688-3.782c0,0,7.987,2.041,14.43-1.57  s5.173-8.704,4.174-10.438c-1.001-1.737-4.178-4.486-14.592,0.116c0,0,5.116-7.975,2.306-14.395  c-6.557-14.976-24.122-23.34-41.893-14.532c-18.146,8.993-18.14,23.359-18.14,23.359s-5.418-1.36-2.827,9.772  c0,0-5.588-0.857-5.891,5.29c-0.301,6.148,1.478,25.219,15.715,30.298c0,0-6.79,16.328-0.927,33.031c0,0-5.105-2.045-8.532-2.952  c-3.425-0.904-4.919-0.538-7.678-0.1c-2.759,0.437-22.14,1.115-29.906,5.338c-7.767,4.222-1.973,9.533,0.853,11.853  c2.824,2.32,6.683,7.479,14.669,4.448c7.984-3.028,16.423-7.021,19.03-7.012c2.608,0.007,13.925,3.7,13.925,3.7  s-0.241,5.514-0.547,7.527c-0.306,2.011-0.754,2.976-4.565,5.05c-3.809,2.074-10.823,4.808-15.243,10.906  c0,0-19.807-27.203-46.461-14.549c-26.651,12.652-29.672,44.843-29.672,44.843s-9.13,0.345-15.172,6.548  c-6.039,6.198-9.591,8.982-11.864,3.923l7.948-3.103c0,0,2.924-4.797-2.546-7.388c-5.468-2.59-10.584,5.665-11.375,8.01  c0,0-8.557,0.754-5.789,9.146c2.765,8.397,11.894,3.454,11.894,3.454s-1.82,9.273-1.438,11.453c0,0,7.609-1.815,14.924,0.275  c7.317,2.097,11.836,5.299,14.369-0.005c2.534-5.301,4.571-12.451,4.571-12.451s4.495,9.073,7.73,11.378  c0,0,2.285-13.969,20.272-26.651l-6.748-4.607c0,0-2.789-1.688-0.428-5.368c2.359-3.68,18.713-27.829,43.541-13.769l-2.847,13.968  c0,0-12.737,0.195-37.507,47.326c0,0-2.697,4.411,4.679,4.936c7.379,0.531,11.123,0.487,14.42,0.666  c3.298,0.18,5.208-2.16,5.723-6.184c0.52-4.021,2.667-18.299,11.063-29.76c2.247-3.065,4.088-2.164,16.873-13.801  c0,0,5.886,8.56,8.069,10.647c0,0-2.745,1.779-0.809,7.935c1.934,6.157,10.853,29.778,12.517,32.859  c1.667,3.08,2.557,4.592,7.361,5.001c4.807,0.409,11.235,0.429,13.921,0.216c2.682-0.214,7.421-3.32,4.124-8.281  c-3.295-4.966-19.868-29.676-19.868-29.676s6.975-12.385,0.593-26.102c0,0,20.576-17.316,23.078-29.158  c2.501-11.843,2.866-20.115,2.866-20.115s35.665-24.141,51.491-49.797C846.117,81.274,835.472,72.46,832.625,70.942z"
       style="fill:#f0f2f3;fill-opacity:1" /></g><g
     inkscape:groupmode="layer"
     id="layer2"
     inkscape:label="rainbow"><rect
       y="98.706024"
       x="-13.779246"
       height="280"
       width="280"
       id="rect1126"
       style="color:#000000;clip-rule:nonzero;display:inline;overflow:visible;visibility:visible;opacity:1;isolation:auto;mix-blend-mode:normal;color-interpolation:sRGB;color-interpolation-filters:linearRGB;solid-color:#000000;solid-opacity:1;vector-effect:none;fill:none;fill-opacity:1;fill-rule:nonzero;stroke:#ff00c8;stroke-width:3.78;stroke-linecap:butt;stroke-linejoin:miter;stroke-miterlimit:4;stroke-dasharray:none;stroke-dashoffset:0;stroke-opacity:1;marker:none;color-rendering:auto;image-rendering:auto;shape-rendering:auto;text-rendering:auto;enable-background:accumulate" /></g><g
     inkscape:groupmode="layer"
     id="layer3"
     inkscape:label="applejack"><rect
       style="color:#000000;clip-rule:nonzero;display:inline;overflow:visible;visibility:visible;opacity:1;isolation:auto;mix-blend-mode:normal;color-interpolation:sRGB;color-interpolation-filters:linearRGB;solid-color:#000000;solid-opacity:1;vector-effect:none;fill:none;fill-opacity:1;fill-rule:nonzero;stroke:#ff00c8;stroke-width:3.78;stroke-linecap:butt;stroke-linejoin:miter;stroke-miterlimit:4;stroke-dasharray:none;stroke-dashoffset:0;stroke-opacity:1;marker:none;color-rendering:auto;image-rendering:auto;shape-rendering:auto;text-rendering:auto;enable-background:accumulate"
       id="rect1130"
       width="280"
       height="280"
       x="143.71167"
       y="67.702736" /></g><g
     inkscape:groupmode="layer"
     id="layer4"
     inkscape:label="pinkie"><rect
       y="-4.6382866"
       x="301.02469"
       height="280"
       width="280"
       id="rect1132"
       style="color:#000000;clip-rule:nonzero;display:inline;overflow:visible;visibility:visible;opacity:1;isolation:auto;mix-blend-mode:normal;color-interpolation:sRGB;color-interpolation-filters:linearRGB;solid-color:#000000;solid-opacity:1;vector-effect:none;fill:none;fill-opacity:1;fill-rule:nonzero;stroke:#ff00c8;stroke-width:3.78;stroke-linecap:butt;stroke-linejoin:miter;stroke-miterlimit:4;stroke-dasharray:none;stroke-dashoffset:0;stroke-opacity:1;marker:none;color-rendering:auto;image-rendering:auto;shape-rendering:auto;text-rendering:auto;enable-background:accumulate" /></g><g
     inkscape:groupmode="layer"
     id="layer5"
     inkscape:label="twilight"
     transform="translate(0,-100)"><rect
       style="color:#000000;clip-rule:nonzero;display:inline;overflow:visible;visibility:visible;opacity:1;isolation:auto;mix-blend-mode:normal;color-interpolation:sRGB;color-interpolation-filters:linearRGB;solid-color:#000000;solid-opacity:1;vector-effect:none;fill:none;fill-opacity:1;fill-rule:nonzero;stroke:#ff00c8;stroke-width:3.78;stroke-linecap:butt;stroke-linejoin:miter;stroke-miterlimit:4;stroke-dasharray:none;stroke-dashoffset:0;stroke-opacity:1;marker:none;color-rendering:auto;image-rendering:auto;shape-rendering:auto;text-rendering:auto;enable-background:accumulate"
       id="rect1124"
       width="280"
       height="280"
       x="421.41513"
       y="176.554184" /></g><g
     inkscape:groupmode="layer"
     id="layer6"
     inkscape:label="rarity"><rect
       style="color:#000000;clip-rule:nonzero;display:inline;overflow:visible;visibility:visible;opacity:1;isolation:auto;mix-blend-mode:normal;color-interpolation:sRGB;color-interpolation-filters:linearRGB;solid-color:#000000;solid-opacity:1;vector-effect:none;fill:none;fill-opacity:1;fill-rule:nonzero;stroke:#ff00c8;stroke-width:3.78;stroke-linecap:butt;stroke-linejoin:miter;stroke-miterlimit:4;stroke-dasharray:none;stroke-dashoffset:0;stroke-opacity:1;marker:none;color-rendering:auto;image-rendering:auto;shape-rendering:auto;text-rendering:auto;enable-background:accumulate"
       id="rect1134"
       width="280"
       height="280"
       x="596.13013"
       y="5.6961446" /></g><g
     inkscape:groupmode="layer"
     id="layer7"
     inkscape:label="fluttershy"><rect
       y="-13.48973"
       x="741.62573"
       height="280"
       width="280"
       id="rect1136"
       style="color:#000000;clip-rule:nonzero;display:inline;overflow:visible;visibility:visible;opacity:1;isolation:auto;mix-blend-mode:normal;color-interpolation:sRGB;color-interpolation-filters:linearRGB;solid-color:#000000;solid-opacity:1;vector-effect:none;fill:none;fill-opacity:1;fill-rule:nonzero;stroke:#ff00c8;stroke-width:3.78;stroke-linecap:butt;stroke-linejoin:miter;stroke-miterlimit:4;stroke-dasharray:none;stroke-dashoffset:0;stroke-opacity:1;marker:none;color-rendering:auto;image-rendering:auto;shape-rendering:auto;text-rendering:auto;enable-background:accumulate" /></g></svg>